<svg version="1.2" xmlns="http://www.w3.org/2000/svg" viewBox="0 0 896 1200" width="896" height="1200"><style>.a{fill:#c7a346}.b{fill:#484848}.c{fill:#010101}.d{fill:#2e2f2e}.e{fill:#f28028}</style><path class="a" d="m649 14.1c20.7-3.5 42.2-3.6 63 0 2.2 0.6 4.8 0.9 6.2 2.8 0.6 4.5-0.1 9.2 0.5 13.7 1.6 3.6 4.4 6.5 7 9.6-1.5 1.6-3.5 2.8-4.3 4.8 0.6 1.7 2.3 2.8 3.3 4.3 1 3-3.5 3.9-3.3 6.6 1 2 4.2 3 4 5.5-1.3 1.4-2.7 2.5-4 3.8-0.3 2.8 3.8 3.9 4 6.6-1 1.8-3 2.8-4.4 4.2 1.5 2 2.9 4 4.7 5.9-1.6 1.7-3.1 3.4-4.7 5.1 1.5 1.6 2.9 3.2 4.4 4.7 0 0.4 0.1 1.2 0.1 1.6-1.5 1.2-2.9 2.4-4.3 3.5 0 0.7 0.1 2.1 0.1 2.8-6.2-0.4-12.4-0.1-18.6-0.1q1.6-0.6 3.3-1.1c-4.4 0.4-8.7 0.4-13 0.3-9.4-0.2-18.7 0.2-28-0.4-13.2-0.7-26.7 1.8-38.7 7.4-0.1 5.6 0 11.2 0 16.8 11.8 4.6 24.8 4.5 37.3 3.8 8.4-1.5 16.9-0.8 25.4-0.9 5.6 0 11.3-0.2 17 0 10.6 1.4 21.4 1.5 32 0.3q2.2-0.3 4.2 0.4l0.9 0.2c5.2 0.4 10.4 0 15.5 0.2 0.1 2.2 0.1 4.3 0.2 6.5-16.6 0.8-33.2 0.2-49.8 0.4-35.8 0.3-71.7-0.2-107.6 0.8 0.1-2.5 0.2-5.1 0.2-7.6 5.3-0.2 10.6-0.1 15.9-0.1 0.3-5.8-0.1-11.7 0.2-17.6 2-4.4 7-5.9 11.3-6.8 4.8-0.5 6.9-5.4 10-8.3-1.1-2.1-4.5-3-4.5-5.5 1.5-1.8 3.4-3.3 4.4-5.5-1.6-1.6-5.2-2.6-4.4-5.3 1.5-1.6 3.2-3.2 4.6-4.9-1.5-1.7-4.5-2.8-4.7-5.2 1.6-1.9 3.4-3.7 4.5-5.9-1.6-1.4-3.8-2.4-4.7-4.5 1.2-2 3.6-3.3 4.5-5.5-1.7-1.7-3.9-3.1-4.7-5.5 1.7-1.7 3.2-3.4 4.8-5.1q-1.4-1.3-2.8-2.7c1.5-2.8 3.9-5.2 5.2-8.1 0.5-4.1-0.2-8.3 0.6-12.3 0.9-3 4.6-3.1 7.2-3.7z"/><path class="a" d="m22.8 584.1c0.1-4.7 0-9.4 0.1-14 0.7 24.6 0.3 49.2 0.6 73.8-0.5-0.1-1.5-0.3-2-0.3-1.9-2.5-4.1-5.2-3.8-8.6 0-13.7 0.1-27.4 0.1-41-0.1-4 2.3-7.3 5-9.9zm-3.9 10.9c0 13-0.4 26-0.2 39-0.1 2.7 1.2 5 2.6 7.2 1-1.5 1.2-3.3 1.2-5.2 0-11.3-0.1-22.6-0.3-34-0.1-4.3 0.8-8.8-1.1-12.9-1.7 1.5-2.4 3.6-2.2 5.9z"/><path class="a" d="m538.7 846.6c5.8-7.4 14.8-12.5 24.3-12.9 6.5 0.4 13.3 2.1 18.5 6.3-6-2.2-12.1-4.8-18.5-5-13.4 0.6-25.5 10.8-28.6 23.8-2 7.2-1.2 15.4 2.9 21.9 1.4 2.2 2.5 4.5 3.6 6.9-11.3-10.3-11.4-29.3-2.2-41z"/><path class="b" d="m82.1 51.8c11.2-2.3 22.6-0.3 33.9-0.7 45 0.3 90 0.9 135 1.4 22.7 0.2 45.3 0.1 68 0.7 13.6 0.5 27.7-1.4 41.1 2.3 10.7 2.6 19.9 9.3 27.4 17.1 10.8 10.9 21.4 21.9 31.9 32.9 6.6 6.9 12.6 14.7 21.1 19.3 12.9 8.1 28.5 10.4 43.5 10 9.7-0.3 19.5-0.2 29.2-0.3 20.2-0.5 40.5 0.3 60.7-0.6 9.1 0.7 18.4 0.1 27.5 0.3 35.9-1 71.8-0.5 107.6-0.8 16.6-0.2 33.2 0.4 49.8-0.4 19.4-0.3 38.8 0 58.2-0.3 14.4-0.2 28.8 5.1 39.7 14.5 13 11 20.4 28 20.8 44.9 0.5 15.6-0.5 31.3-0.3 47-0.6 41.3-0.5 82.6-1 123.9-0.7 45.7-0.6 91.4-1 137-0.7 34.7-0.4 69.4-0.8 104 0.1 35-0.8 70-0.8 105-0.1 7 0.2 14.1-0.2 21.2-0.9-9.1 0.1-18.2-0.9-27.3-0.6 8.3-0.1 16.7-0.4 25.1 0.3 6.9-1 13.9 1.1 20.5 0.3 19.8 0.2 39.7-0.4 59.5 0 80-1.2 160-1.6 240-0.8 27-0.3 53.9-0.8 80.9-0.8 18.1-10.4 36-26 45.6-8.7 5.7-19.1 8.2-29.4 8.7-11 0.2-22-0.4-33-0.4-56-0.2-112-0.7-168-1.3-25.3 0-50.7 0-76-0.6-56-0.1-112-0.8-168-1.3-51-0.3-102-0.8-153-1.2-39 0.1-78-0.7-117-0.7-9.8-0.1-20 0.2-29.3-3.5-13.6-4.5-25-14.8-31.1-27.7-4.7-9.5-6.1-20.1-5.8-30.5 0.2-13.1-0.5-26.3 0.6-39.4 1.3-5.5 0.6-11.1 0.7-16.6 0.4-116.7-0.1-233.3 0.1-350 0.1-5-0.8-10-0.7-15-0.1-108.1-0.1-216.1 0-324.2q-1.2-1.1-2.3-2.3c2.4-3.7 2.3-8.3 2.3-12.5-0.1-60 0.5-120-0.7-180 0.1-5.9-0.2-11.8 0.1-17.7 0.8-12.1 0.2-24.2 0.4-36.3 0-5.2 0-10.3-0.5-15.4 0.8-26.4 22.2-50.5 48.3-54.8zm9.2 15.6c-11.4 2.4-22.2 8.2-29.7 17.2-7.5 9.1-12.6 20.5-12.8 32.4-0.5 38.3 1.1 76.6 1 115-0.1 144.7-0.1 289.3-0.3 434 0.3 61 0.2 122 0.2 183.1-0.1 50.3 0.1 100.6-0.4 150.9q-0.1 48.5-0.1 97c-0.4 10-1.3 20.3 1.7 30.1 4.3 14.6 15.5 27.1 30 32.1 10.2 4 21.4 3 32.1 3.3 16-0.1 32 0.1 47.9 0.2 58.1 0.9 116.1 0.5 174.2 1.4 36.3 0.4 72.6 0.4 108.9 0.7 55.7 0.9 111.3 0.6 167 1.4 60.3 0.5 120.6 0.8 181 1.4 9.7-0.1 19.7 0.8 29.1-2.4 16-4.7 28.4-18.6 32.6-34.5 2.5-9.4 1.3-19.1 1.7-28.7 0.5-70.7 1.2-141.4 1.5-212 1-32.3 0.3-64.7 0.8-97 0.2-12-0.3-24 0.5-36 0.2-62.3 0.6-124.6 1.1-186.9 0-40.7 1-81.4 1-122.1 0.4-49.3 0.6-98.7 1-148 0.6-28-0.1-56 1-83.9-0.1-13.3 0.4-27.3-6.1-39.4-6.3-13.5-19.2-23.7-33.7-27.2-7-1.8-14.3-1.2-21.5-1.2-38.3 0.3-76.7 0.2-115 0.7-51 0.4-102 0.5-153 0.8-18.3 0.8-36.7 0.2-55 0.6-22.2 0.6-45-7.7-60.2-24.1-13-13.4-25.9-26.8-38.9-40.2-9.2-10.6-23-16.6-36.9-17.3-51.7-0.4-103.3-1-154.9-1.6-14.7-0.2-29.4 0.3-44.1-0.4-13.7-0.3-27.4-0.3-41-0.5-3.6 0-7.2 0.4-10.7 1.1z"/><path class="b" d="m129.3 124.4c4.3-1.4 9.1-0.1 12.5 2.8 3.8 3.2 7 7 10.4 10.6q44.7 45.8 89.1 91.9c3.6 3.7 7.8 7.8 7.6 13.3 0.5 7.6-6 15.2-13.9 14.9-4.2 0.3-7.9-2.3-10.6-5.4-11.7-11.9-23.2-24.1-34.9-36-13.3-13.4-26.1-27.2-39.4-40.6-7.1-7.9-14.7-15.3-22-23-3.9-3.8-8.8-7.9-9-13.9-0.8-6.6 4-12.8 10.2-14.6z"/><path class="b" d="m208.3 124.3c5.6-1.4 11.1 1.4 14.7 5.7 31.5 32.5 63.5 64.5 94.7 97.3 3.3 3.4 7.2 6.4 9.1 10.9 3.1 7.2-0.9 16.7-8.4 19.2-4.7 1.1-10.1 0.4-13.5-3.3-23.8-24.6-47.7-49.1-71.5-73.6-10.9-11.4-22.2-22.4-33-33.9-6.4-7.4-1.8-20.6 7.9-22.3z"/><path class="b" d="m286.3 124.5c6.4-2.2 12.4 2.2 16.5 6.8 13.8 14.7 28.6 28.7 42.3 43.6q26.1 26.4 51.9 53c3.3 3.5 7.3 6.6 9.1 11.2 2.7 7.2-1.6 16.5-9.2 18.3-3.6 0.6-7.7 0.8-10.9-1.3-3.4-2.2-5.9-5.5-8.7-8.4-16-16.6-32.4-32.9-48.3-49.6-16.6-16.5-32.5-33.6-49-50.2-7.5-7-3.7-21.2 6.3-23.4z"/><path class="b" d="m125.2 211.3c4.4-1.8 9.8-1.1 13.4 2.1 6.2 5.3 11.6 11.7 17.5 17.4 1.8 1.9 3.9 3.6 5.3 5.9 2.1 4.4 2.6 10.1-0.3 14.4-3.1 3.9-7.9 7.1-13.1 6.6-3.6 0-6.7-2.1-9.1-4.6q-8.9-9.1-17.8-18.2c-3.1-3.1-5.2-7.4-4.6-11.9 0.3-5.2 4-9.7 8.7-11.7z"/><path class="b" d="m569.4 259.6c9.9-0.6 19.8-0.2 29.6-0.3 24.4 0 48.7-0.1 73 0 8.2 0 16.7-0.7 24.6 2.2 13.6 4 25.1 14.2 30.8 27.2 4.5 8.7 5.4 18.6 5.2 28.2 0.4 29.1 0.2 58.1 0.3 87.1-0.1 52 0 104-0.1 156-0.5 12.1 1.1 24.6-2.5 36.3-3.8 11.5-10.7 22.4-21.2 28.8-7.7 5.1-16.9 8-26.1 8.4-149.7-0.1-299.3 0-449 0-5.7 0-11.4 0.1-17-1.4-15.3-3.5-29-14.5-34.9-29.2-6-12.8-5.3-27.2-5-40.9-0.5-32.6 0.5-65.3-0.2-97.9-0.1-10.7-0.1-21.4 0.2-32.1-0.6-16.7 0.3-33.3 0-50 0.2-10.5-0.3-21 0.5-31.5 2-14 9.3-27.7 21.1-35.8 7.9-5.7 17.5-9.2 27.3-9.3 82.3 0 164.6 0 247 0 10.4 0 21.3-0.8 30.6-5.9 14.3-7.8 24.3-21.2 37.8-30.2 8.5-5.3 18.1-8.8 28-9.7zm4.1 18.1c-12.2 0.5-23.1 6.9-31.9 14.9-11 10.3-22.2 21.1-36.6 26.5-12 5.2-25.3 4.2-38 4.5-79.7 0.1-159.3 0-239 0.1-17.4-0.5-32.5 15.1-32.5 32.2 0 75 0.1 150.1-0.1 225.1-0.3 14.5 9.7 28.6 23.7 32.9 5.1 1.5 10.5 1.3 15.8 1.3q223.5 0 447.1 0c7.4-0.1 14.8-2.8 20.4-7.8 7.9-6.3 12.3-16.4 12.1-26.4-0.1-89 0-178-0.1-267 0.2-9-2.3-18.3-8.3-25.1-6.4-7.5-16.2-12-26.1-11.5-35.5 0.3-71-0.2-106.5 0.3z"/><path class="b" d="m105.4 306.7c13.8-3.2 28.6 0.7 40.3 8.6 12.2 8.8 20.6 22.7 22.4 37.7 1.2 12.6-2.1 25.5-9.1 36-6.2 8.6-14.5 15.8-24.4 19.6-12.4 5-26.7 5-39-0.2-11-4.7-20.5-13.1-26.5-23.4-7.1-13.2-8.7-29.5-3.7-43.6 5.8-17.7 21.8-31.3 40-34.7zm2.9 4.9c-15.9 2.4-30.3 13.4-36.3 28.4-5.1 10.7-5.5 23.4-1.5 34.6 4.2 11.8 13.1 22.1 24.4 27.6 9.9 5 21.7 5.7 32.4 3.2 14.4-3.5 26-15 31.8-28.3 3.3-7.2 4-15.3 3.5-23.2-1.7-16.3-12.5-31.2-27.2-38.4-8.3-4.1-17.9-5.1-27.1-3.9z"/><path class="b" d="m783.5 308.8c14.9-3.5 31 0.3 43 9.6 10.6 8.1 17.7 20.3 19.9 33.4 3 14.2-1.3 29.3-9.9 40.7-9.4 13.2-25.4 21.5-41.5 21.4-14.7 0.6-29.3-6.1-39.2-16.8-16.9-17.6-19.1-47.3-4.7-67.1 7.7-10.8 19.4-18.6 32.4-21.2zm3.7 4.6c-12.3 1.9-23.5 9-31 18.9-6.7 9.8-10.6 21.9-8.9 33.8 1.7 15.8 11.7 30.5 26 37.6 11.5 5.9 25.3 6.4 37.4 2 10.3-3.6 18.9-11.2 24.5-20.5 5.7-10.3 8-22.6 5.6-34.2-2.8-12.7-10.3-24.7-21.8-31.1-9.3-6-20.8-8.4-31.8-6.5z"/><path class="b" d="m106.4 325.7c7.8-2.1 16.4-1.4 23.6 2.2 11 5.3 18.7 16.8 19.1 29 0.2 7-1 14.2-4.9 20.1-5.9 9.7-16.8 16.3-28.2 16.4-14.8 0.4-29.1-10-33.3-24.2-4.4-13.9 1.2-30.1 13.2-38.4 3.2-2.2 6.8-4 10.5-5.1zm3.8 13.5c-1.2 4.5-0.2 9.3-0.9 13.9-4.3 0.1-8.7-0.3-12.9 0.4-1.6 0.3-2.3 2-2.3 3.4-0.1 2.5-0.3 5.5 1.8 7.3 4.3 0.9 8.8 0.2 13.2 0.7 0.6 4.6-0.4 9.4 1.1 13.8 2.5 2.9 7.8 2.4 10.2-0.4 1-4.3 0.3-8.9 0.6-13.3 4.3-0.8 8.7-0.4 13-1.1 1.8-0.3 2.1-2.4 2.2-3.9 0-2.3-0.1-5.4-2.5-6.5-4.3-0.4-8.6-0.1-12.8-0.4-0.5-4.8 0.4-9.7-0.6-14.4-2.9-2.1-7.5-2-10.1 0.5z"/><path class="b" d="m789.5 326.6c16.9-2.9 34.3 9.6 37.8 26.3 4.5 17-6.5 36.3-23.4 40.9-13.2 4.4-28.3-1.3-36.6-12.1-7.3-9.8-8.9-23.4-4.2-34.6 4.8-10.6 15-18.5 26.4-20.5zm-0.7 14.2c-1 4.6 0.1 9.4-0.1 14.1-4.6 0.7-9.4-0.2-13.9 0.8-1.6 2.8-2.7 7.2-0.1 9.7 4.3 1.8 9.3 0.5 13.9 0.9 0.3 4.8-0.7 9.8 0.5 14.5 2.8 2.4 8.6 2.5 10.5-1.1 0.9-4.3 0.4-8.8 0.8-13.2 4.2-0.2 8.4 0.2 12.6-0.4 3.4-2.1 3.3-8.8-0.3-10.8-4.2-0.5-8.4-0.1-12.6-0.4-0.3-4.5 0.1-9.1-0.6-13.6-2.6-2.8-7.7-2.5-10.7-0.5z"/><path class="b" d="m229.4 338.5c3.2-0.7 6.4-0.7 9.6-0.7 144.7 0 289.4 0 434-0.1 4.4-0.1 8.8 0.6 12.7 2.6 9 4.1 14.3 14.1 14.1 23.7q0.1 105 0 210c0.1 5.4-1 11-4.1 15.6-4.7 7.7-13.9 11.7-22.7 11.2-145.6 0.1-291.3 0.1-436.9 0-10.5 0.3-21-6.2-24.6-16.2-2.2-5.2-1.7-11.1-1.7-16.6-0.1-66.7 0-133.4 0-200-0.1-4.4-0.1-8.8 1.4-12.9 2.7-8.2 9.9-14.6 18.2-16.6z"/><path class="b" d="m217.2 671.4c5.8-1.9 12.5 0.7 15.7 5.8 3 4.7 3.1 11.2-0.1 15.8-22.3 32-44.9 63.7-67.4 95.5-5.1 6.9-9.7 14.1-15.1 20.8-2.8 3.7-7.7 5.4-12.3 4.8-9.1-1.1-15.4-12.8-10.3-20.7 7.6-11.2 15.7-22.2 23.4-33.3 15.6-21.8 30.5-44.1 46.4-65.6 4.2-6.1 8.4-12.3 12.7-18.2 1.7-2.4 4.3-4 7-4.9z"/><path class="b" d="m293.2 676.3c3.2-4.7 9.6-6.5 15-5 3.7 0.8 6.4 3.9 8.6 6.9 11.9 17 24 33.9 36.1 50.8 13.9 20.1 28 40 42.3 59.9 2.4 3.2 4.9 6.9 4.6 11.1 0.2 6.5-4.6 12.5-10.9 13.8-5 1.2-10.6-0.8-13.7-4.9-10.1-13.1-19.2-26.9-28.9-40.2-11.6-16.4-23.2-32.8-34.9-49.1-2.3-3.3-4.4-6.8-7.2-9.8-21 30.7-42.5 61.1-63.9 91.5-3.3 4.5-6 10.3-11.7 12.2-7.2 2.7-15.7-2-17.9-9.2-1.7-4.7 0.1-9.8 3-13.7 26.3-38.2 53.4-75.9 79.5-114.3z"/><path class="b" d="m719.5 786.7c13.4-2.5 27.4-1.1 40.3 3.6 14.6 5 27.2 15.2 36.4 27.6 7.8 10.2 12.3 22.6 14.2 35.2 3.9 22.3-2.9 45.8-16.9 63.4-14.5 18-37.3 29.1-60.4 29.1-24.7 0.1-48.8-12.5-63.2-32.4-9.6-13-14.8-29.1-15.5-45.2-0.6-17.8 4.8-35.8 15.3-50.2 11.7-16.3 29.8-28 49.8-31.1zm6.9 13.9c-17.6 1.5-34 11.2-44.5 25.2-10.7 15.3-15.4 34.8-11.6 53.1 2.8 12.3 8.5 24.3 17.6 33.2 9.7 10.2 23.1 16.6 37 18.4 14.4 2.2 29.3-1.4 41.4-9.2 22.6-13.9 34.5-42.5 29.5-68.4-3.5-18.3-15-35.1-31.2-44.5-11.6-6.4-25-9.4-38.2-7.8z"/><path class="b" d="m556.4 814.7c13.4-1.8 27.4 1.7 38.1 9.9 6.3 5 11.9 11.2 15.2 18.6 3 7.2 5.2 15 5.1 22.9 0 14.5-6.1 29.1-17.1 38.7-12.3 11.4-30.6 15.4-46.8 11.4-11.8-2.8-21.9-10.5-29.1-20-9.3-13.3-12.5-31-7-46.4 5.7-18.3 22.6-32.6 41.6-35.1zm-0.1 5.7c-7.7 1.6-15.3 4.4-21.4 9.5-11.5 9.7-18.5 24.9-17.1 40.1 0.9 11.5 6.9 22.2 15 30.2 8.1 7.7 19.3 11.4 30.2 12 12.6 0.1 25.1-5.2 33.9-14.3 6.4-7.5 11.2-16.9 12.2-27 1.7-15.8-5.5-32.3-18.1-42-9.9-7-22.6-11-34.7-8.5z"/><path class="b" d="m120.1 870.4c10.3 0.1 20.6 0 30.9 0.1 8.2 0 16.9 2.8 21.9 9.6 8.6 11 5.9 30.4-7.5 36.3-9.3 4.5-19.9 2.7-29.9 3 0 9-0.1 18 0 27-5.2 0-10.4 0.1-15.7 0 0-19.1 0.1-38.3 0.1-57.4 0-6.2-0.3-12.4 0.2-18.6zm15.3 12.9c0.1 7.8 0.2 15.6 0.1 23.4 5.5 0 11.1 0.2 16.6-0.1 2.9-0.1 5.9-1.4 7.8-3.7 4.7-6.2 2.2-17.1-5.8-19.2-6.1-1.2-12.4-0.3-18.7-0.4z"/><path class="b" d="m183.1 870.4q7.7 0.1 15.5 0c3.2 16.6 6.4 33.2 9.8 49.7q0.4 1.1 0.9 2.1c4.2-17.2 8.1-34.5 12.4-51.7 4.6-0.1 9.1 0 13.7 0 4.4 17.5 8.6 35.2 12.9 52.7 3.8-17.5 6.5-35.2 10.4-52.7 5.2 0.1 10.3-0.2 15.4 0.1-4.2 17.4-7.6 34.9-11.7 52.3-1.8 7.8-4 15.6-5.3 23.5-5.4 0-10.7 0.1-16.1-0.1-2.5-12.9-6.2-25.5-9.2-38.3-1.2-3.8-1.3-8.1-3.6-11.4-4.2 16.6-8 33.2-11.9 49.8-5.4 0-10.8 0.3-16.2-0.1-5-25.4-11.8-50.5-17-75.9z"/><path class="b" d="m350.5 870.5c7.9-0.1 15.7 0.1 23.5 0 10-0.3 20.6 3.5 26.9 11.6 6 7.2 8.1 16.7 8 25.9 0.3 7.9-1.1 15.9-5 22.9-5.5 9.3-16 15.5-26.9 15.6-8.8 0-17.5-0.1-26.3-0.1-0.3-25.3 0.2-50.6-0.2-75.9zm15.8 12.8c0.1 16.9 0 33.7 0.1 50.5 6.6-0.1 14.2 1 19.7-3.7 6.5-5.7 7.3-15 7.2-23.1-0.3-7.3-1.4-15.8-7.7-20.5-5.6-4.2-12.9-3.1-19.3-3.2z"/><path class="b" d="m282.2 870.6c6.6-0.4 13.2 0 19.8-0.1 8.3 0 17-0.8 24.6 2.9 5.8 2.7 10.6 8.2 11.5 14.6 1 6.9 0.3 14.5-4.2 20-2.4 2.9-5.6 4.9-8.6 7 5 10.7 11.4 20.7 16.4 31.4-5.9 0.1-11.7 0.3-17.6-0.1-4-9.5-9-18.5-13.9-27.6-4.2 0.1-8.3 0-12.4-0.1 0.1 9.3-0.1 18.5 0.1 27.7-5.2 0.3-10.3 0.1-15.4 0.3-0.4-25.3 0.1-50.6-0.3-76zm15.8 12.5c-0.2 7.6-0.3 15.1-0.1 22.7 6.7-0.7 13.9 1.2 20.1-1.8 4.9-2.5 5.4-8.8 4.5-13.6-0.9-3.9-4.6-6.8-8.5-7-5.3-0.4-10.7-0.1-16.1-0.3z"/><path class="b" d="m221.4 980.5c3.7-1.2 7.7-0.7 11.6-0.7 40.3-0.1 80.7 0.7 121 0.5 36.3 0.3 72.7 0.4 109 0.5 24.7-0.1 49.3 0.6 74 0.6 44.3 0.2 88.6 0.2 133 0.5 7.8-0.3 14.8 6.4 15.3 14.1 0.7 7.1-4 14.6-11.1 16.3-3.7 0.8-7.5 0.5-11.2 0.5-54.3-0.1-108.7-0.3-163-0.8-68-0.1-136-0.8-204-0.9-23.7-0.4-47.4-0.4-71.1-0.6-8.6-0.1-15.6-9.2-14-17.6 0.7-5.7 5.1-10.5 10.5-12.4z"/><path class="b" d="m104.3 1044.5c10.1-1.9 20.8-1 30.3 3 16 6.5 28.4 21.4 31.6 38.5 2.9 12.4 0.6 25.7-5.4 36.9-6.5 10.9-16.3 20.2-28.4 24.5-13.2 4.9-28.1 3.7-40.8-1.9-12.7-6.5-23.4-17.7-27.6-31.4-4.2-12.3-3.9-26.1 1.2-38 6.7-16.1 22-28.4 39.1-31.6zm2.2 5.1c-15.7 2.6-29.4 13.6-35.8 28-10.3 21.4-0.7 49.5 19.9 60.9 11.1 6.6 25 8 37.4 4.4 10.2-3.1 19.4-9.7 25.2-18.6 7.7-10.7 10.4-24.5 7.7-37.3-3-13.5-11.7-25.7-23.9-32.1-9.1-5.5-20.2-6.7-30.5-5.3z"/><path class="b" d="m782.3 1049.4c10-1.7 20.4-0.2 29.7 3.7 7.1 3 13.2 8 18.6 13.4 14.3 15.7 17.5 40.3 8.2 59.4-7.9 15.1-22.8 27.3-39.9 29.5-10.2 1.2-20.8 0-30.2-4.2-14.7-7.3-26.4-21-29.7-37.2-4.2-17.8 1.3-37.8 14.9-50.1 7.6-7.7 17.7-12.8 28.4-14.5zm-1.9 6.2c-3.3 0.8-6.4 1.9-9.4 3.3-16.3 7-27.4 24.4-27.7 42.1-0.8 14.6 6.4 28.9 17.2 38.5 8.8 7.1 20.3 11 31.6 10.7 14.5-0.5 29.1-7.6 37.4-19.7 12-15.7 12.1-38.8 1-55-10.3-16.2-31.5-24.6-50.1-19.9z"/><path class="b" d="m106.3 1063.3c14.7-3.8 30.9 4.1 38 17.4 5.3 10 5.3 22.7 0 32.7-5.7 10.1-16.6 17.4-28.3 17.9-15.4 1.3-30.5-9.8-34.7-24.5-2-6.6-1.7-13.8 0.2-20.4 3.6-11.3 13.4-20.1 24.8-23.1zm3 14c-1.2 4.5-0.5 9.2-1.2 13.8-3.7 0.4-7.4 0.2-11 0.3-5.3-0.4-5.4 7.4-2.7 10.2 4.4 1.4 9.2 0.4 13.7 1.2 0.9 4.6 0.3 9.3 1.4 13.9 2.5 3.3 9.2 2.3 9.9-2.1 0.4-3.9 0.2-7.9 0.4-11.8 4.1-0.4 8.3 0.2 12.3-0.6 5.4-0.9 4.4-11.2-1.1-10.9-3.6 0-7.3 0.2-10.9-0.3-0.4-4.4-0.2-8.9-0.9-13.3-2.1-3.2-7.5-3.2-9.9-0.4z"/><path class="b" d="m784.4 1068.6c16.7-3.9 34.9 7.6 39.1 24 2 7.9 1.9 16.7-1.6 24.1-6.4 14.1-22.9 23.1-38.1 19.5-10.3-2.7-19.8-9.9-24.1-19.9-3-6.5-3-13.9-2.2-20.9 2.2-13.4 13.8-24.3 26.9-26.8zm1.2 15.1c-0.7 4.2 0.2 8.6-0.9 12.9-3.9 0.2-7.8 0-11.7 0.5-4.2 1.2-4.4 7.7-1.6 10.4 4.5 0.5 9.1 0.2 13.6 0.6 0.8 4.8-0.5 10 1.5 14.6 2.7 2.1 8.1 2.1 9.7-1.4 0.8-4.2 0.2-8.7 0.8-13 3.7-0.2 7.3-0.3 11-0.5 5.3 0.1 5.4-8.3 1.9-10.6-4.2-0.7-8.6-0.3-12.8-0.5-0.7-3.5-0.7-7.1-0.8-10.6-0.1-1.9-0.1-4.5-2.4-5.1-2.7-0.7-7.4-0.8-8.3 2.7z"/><path class="b" d="m221.3 1074.4c3.8-1.2 7.8-0.8 11.7-0.8 29.3 0.3 58.7-0.2 88 0.6 34.7 0.1 69.3 0.3 104 0.3 23.7 0.5 47.4-0.1 71.1 0.7 56.6 0.1 113.3 0.4 169.9 0.6 5.2-0.3 10.9 0.5 14.6 4.6 6.8 6.1 5.9 18.3-1.6 23.5-3.6 3.1-8.5 3.1-13 3-58.3-0.4-116.6-0.6-174.9-0.7-24.1-0.8-48.1-0.4-72.1-0.6-31.7-0.2-63.4-0.3-95.1-0.4-32.3-0.3-64.6-0.6-96.9-0.5-7.1 0.3-14.5-4.6-16.1-11.7-2-7.7 2.8-16.2 10.4-18.6z"/><path class="c" d="m91.3 67.4c3.5-0.7 7.1-1.1 10.7-1.1 13.6 0.2 27.3 0.2 41 0.5 14.7 0.7 29.4 0.2 44.1 0.4 51.6 0.6 103.2 1.2 154.9 1.6 13.9 0.7 27.7 6.7 36.9 17.3 13 13.4 25.9 26.8 38.9 40.2 15.2 16.4 38 24.7 60.2 24.1 18.3-0.4 36.7 0.2 55-0.6 51-0.3 102-0.4 153-0.8 38.3-0.4 76.7-0.4 115-0.7 7.2 0 14.5-0.6 21.5 1.2 14.5 3.6 27.4 13.7 33.7 27.2 6.5 12.1 6 26.1 6.1 39.4-1.1 27.9-0.4 55.9-1 83.9-0.4 49.3-0.6 98.7-1 148 0 40.7-1 81.4-1 122.1-0.5 62.3-0.9 124.6-1.1 186.9-0.8 12-0.3 24-0.5 36-0.5 32.3 0.2 64.7-0.8 97-0.3 70.6-1 141.3-1.5 212-0.4 9.6 0.7 19.3-1.7 28.7-4.2 15.9-16.6 29.8-32.6 34.5-9.4 3.2-19.4 2.3-29.1 2.4-60.4-0.6-120.7-0.9-181-1.4-55.7-0.8-111.4-0.5-167-1.4-36.3-0.3-72.6-0.3-108.9-0.7-58.1-0.9-116.1-0.5-174.2-1.4-15.9-0.1-31.9-0.3-47.9-0.2-10.7-0.3-21.9 0.7-32.1-3.3-14.5-5-25.7-17.5-30-32.1-3-9.8-2.1-20.1-1.7-30.1q0-48.5 0.1-97c0.5-50.3 0.3-100.6 0.4-150.9 0-61.1 0.1-122.1-0.2-183.1 0.2-144.7 0.2-289.3 0.3-434 0.1-38.4-1.5-76.7-1.1-115 0.3-11.9 5.4-23.3 12.9-32.4 7.5-9 18.3-14.8 29.7-17.2zm38 57c-6.2 1.8-11 8-10.2 14.6 0.2 6 5.1 10.1 9 13.9 7.3 7.7 14.9 15.1 22 23 13.3 13.4 26.1 27.2 39.4 40.6 11.7 11.9 23.2 24.1 34.9 36 2.7 3.1 6.4 5.7 10.6 5.4 7.9 0.3 14.4-7.3 13.9-14.9 0.2-5.5-4-9.6-7.6-13.3q-44.4-46.1-89.1-91.9c-3.4-3.6-6.6-7.4-10.4-10.6-3.4-2.9-8.2-4.2-12.5-2.8zm79-0.1c-9.7 1.7-14.3 14.9-7.9 22.3 10.8 11.5 22.1 22.5 33 33.9 23.8 24.5 47.7 49 71.5 73.5 3.4 3.8 8.8 4.5 13.5 3.4 7.5-2.5 11.5-12 8.4-19.2-1.9-4.5-5.8-7.5-9.1-10.9-31.2-32.8-63.2-64.8-94.7-97.3-3.6-4.3-9.1-7.1-14.7-5.7zm78 0.1c-10 2.3-13.8 16.5-6.2 23.5 16.4 16.6 32.3 33.7 48.9 50.2 15.9 16.7 32.3 33 48.3 49.6 2.8 2.9 5.3 6.2 8.7 8.4 3.2 2.1 7.3 1.9 10.9 1.3 7.6-1.8 11.9-11.1 9.2-18.3-1.8-4.6-5.8-7.7-9.1-11.2q-25.8-26.6-51.9-53c-13.7-14.9-28.5-28.9-42.3-43.7-4.1-4.5-10.1-8.9-16.5-6.8zm-161.1 86.9c-4.7 2-8.4 6.5-8.7 11.7-0.6 4.5 1.5 8.8 4.6 11.9q8.9 9.1 17.8 18.2c2.4 2.5 5.5 4.6 9.1 4.6 5.2 0.5 10-2.7 13.1-6.6 2.9-4.3 2.4-10 0.3-14.4-1.4-2.3-3.5-4-5.3-5.9-5.9-5.7-11.3-12.1-17.5-17.4-3.6-3.2-9-3.9-13.4-2.1zm444.2 48.3c-9.9 0.9-19.5 4.4-28 9.7-13.5 9-23.5 22.4-37.8 30.2-9.3 5.1-20.2 5.9-30.6 5.9-82.4 0-164.7 0-247 0-9.8 0.1-19.4 3.6-27.3 9.3-11.8 8.1-19 21.8-21 35.8-0.9 10.5-0.4 21-0.6 31.5 0.3 16.7-0.6 33.3 0 50-0.3 10.7-0.3 21.4-0.2 32.1 0.7 32.6-0.3 65.3 0.2 97.9-0.3 13.7-1 28.1 5 40.9 5.9 14.7 19.6 25.7 34.9 29.2 5.6 1.5 11.3 1.4 17 1.4 149.7 0 299.3-0.1 449 0 9.2-0.4 18.4-3.3 26.2-8.4 10.4-6.4 17.3-17.3 21.1-28.8 3.6-11.7 2-24.2 2.5-36.3 0.1-52 0-104 0.1-156-0.1-29 0.1-58-0.3-87.1 0.2-9.6-0.7-19.5-5.2-28.2-5.7-13-17.2-23.2-30.8-27.2-7.9-2.9-16.4-2.2-24.6-2.2-24.3-0.1-48.6 0-73 0-9.8 0.1-19.7-0.3-29.6 0.3zm-464 47.1c-18.2 3.4-34.2 17-40 34.7-5 14.1-3.4 30.3 3.7 43.6 6 10.3 15.5 18.7 26.5 23.4 12.3 5.2 26.6 5.2 39 0.2 9.9-3.8 18.2-11 24.4-19.6 7-10.5 10.3-23.5 9.1-36-1.8-15-10.2-29-22.4-37.7-11.7-7.9-26.4-11.8-40.3-8.6zm678.1 2.1c-13 2.6-24.7 10.4-32.4 21.2-14.4 19.8-12.2 49.5 4.7 67.1 9.9 10.7 24.5 17.4 39.2 16.8 16.1 0.1 32.1-8.2 41.5-21.4 8.6-11.4 12.9-26.5 9.9-40.7-2.2-13.1-9.3-25.3-19.9-33.4-12-9.3-28.1-13.1-43-9.6zm-566.3 362.6c-2.7 0.8-5.3 2.5-7 4.9-4.4 5.9-8.5 12.1-12.7 18.2-15.9 21.5-30.8 43.8-46.4 65.6-7.7 11.1-15.8 22.1-23.4 33.3-5.1 7.9 1.2 19.6 10.3 20.7 4.6 0.6 9.4-1.1 12.3-4.8 5.4-6.7 10-13.9 15.1-20.8 22.4-31.8 45.1-63.5 67.4-95.5 3.2-4.6 3.1-11.1 0.1-15.8-3.2-5.1-9.9-7.7-15.7-5.8zm76 4.9c-26.1 38.3-53.2 76.1-79.6 114.3-2.9 3.9-4.6 8.9-2.9 13.7 2.2 7.2 10.7 11.9 17.9 9.2 5.7-1.9 8.4-7.7 11.7-12.2 21.4-30.5 42.9-60.8 63.9-91.5 2.8 3 4.9 6.5 7.2 9.8 11.7 16.3 23.3 32.7 34.9 49.1 9.7 13.3 18.8 27.1 28.9 40.2 3.1 4.1 8.7 6.1 13.7 4.9 6.3-1.3 11.1-7.3 10.8-13.8 0.4-4.3-2.1-7.9-4.5-11.2-14.3-19.8-28.4-39.7-42.3-59.8-12.2-16.9-24.2-33.8-36.1-50.8-2.2-3-4.9-6.1-8.6-7-5.4-1.4-11.8 0.4-15 5.1zm426.3 110.4c-20 3.1-38.1 14.8-49.8 31.1-10.5 14.4-15.9 32.4-15.3 50.2 0.7 16.1 5.9 32.2 15.5 45.2 14.3 19.9 38.5 32.5 63.2 32.4 23.1 0 45.9-11.1 60.4-29.1 14-17.6 20.8-41.1 16.9-63.4-1.9-12.6-6.4-25-14.2-35.2-9.2-12.4-21.8-22.6-36.4-27.6-12.9-4.7-26.9-6.1-40.4-3.6zm-163 28c-19 2.5-35.9 16.8-41.6 35.1-5.5 15.4-2.3 33.1 7 46.4 7.2 9.5 17.3 17.2 29.1 20 16.2 4 34.5 0 46.8-11.4 11-9.6 17.1-24.2 17.1-38.7 0.1-7.9-2.1-15.7-5.1-22.9-3.4-7.4-8.9-13.6-15.2-18.6-10.7-8.2-24.7-11.7-38.1-9.9zm-436.3 55.7c-0.5 6.2-0.2 12.4-0.3 18.6 0.1 19.1 0 38.3 0 57.4 5.2 0.1 10.5 0 15.7 0-0.1-9 0-18 0-27 10-0.3 20.6 1.5 29.9-3 13.4-5.9 16.1-25.3 7.5-36.3-5-6.8-13.7-9.6-21.9-9.7-10.3 0-20.6 0.1-30.9 0zm63 0c5.2 25.4 12 50.5 17 75.9 5.4 0.3 10.8 0.1 16.2 0.1 3.8-16.6 7.7-33.2 11.9-49.8 2.3 3.3 2.4 7.6 3.6 11.4 3 12.8 6.7 25.4 9.2 38.3 5.4 0.2 10.7 0.1 16.1 0.1 1.3-8 3.5-15.7 5.3-23.5 4.1-17.4 7.5-34.9 11.7-52.3-5.1-0.3-10.3 0-15.4-0.1-3.9 17.5-6.6 35.2-10.5 52.7-4.2-17.5-8.4-35.2-12.8-52.7-4.6 0-9.2-0.1-13.8 0-4.2 17.2-8.1 34.5-12.3 51.7q-0.5-1-0.9-2.1c-3.4-16.5-6.6-33.1-9.8-49.7q-7.8 0.1-15.5 0zm167.4 0.1c0.4 25.3-0.1 50.6 0.2 75.9 8.8 0 17.5 0.1 26.3 0 10.9 0 21.4-6.2 26.9-15.5 3.9-7 5.3-15 4.9-22.9 0.2-9.2-1.9-18.8-8-25.9-6.2-8.1-16.8-11.9-26.8-11.7-7.8 0.2-15.6-0.1-23.5 0.1zm-68.3 0.1c0.3 25.4-0.2 50.7 0.3 76 5.1-0.2 10.2 0 15.4-0.3-0.2-9.2 0-18.4-0.1-27.7 4.1 0.1 8.2 0.2 12.4 0.1 4.9 9.1 9.9 18.1 13.9 27.6 5.9 0.4 11.7 0.2 17.6 0.1-5-10.7-11.4-20.7-16.4-31.4 3-2.1 6.2-4.1 8.6-7 4.5-5.5 5.2-13.2 4.1-20-0.8-6.4-5.6-11.9-11.4-14.6-7.6-3.7-16.3-2.9-24.6-2.9-6.6 0.1-13.2-0.3-19.8 0.1zm-60.8 109.9c-5.4 1.9-9.8 6.7-10.5 12.4-1.6 8.4 5.4 17.5 14 17.6 23.7 0.2 47.4 0.2 71.1 0.6 68 0.1 136 0.8 204 0.9 54.3 0.5 108.7 0.7 163 0.8 3.7 0 7.5 0.3 11.2-0.5 7.1-1.7 11.8-9.2 11.1-16.3-0.5-7.7-7.5-14.4-15.3-14.1-44.4-0.3-88.7-0.3-133.1-0.6-24.6 0.1-49.2-0.6-73.9-0.5-36.3-0.1-72.7-0.2-109-0.5-40.3 0.2-80.7-0.6-121-0.5-3.9 0-7.9-0.5-11.6 0.7zm-117.1 63.9c-17.1 3.3-32.4 15.6-39.1 31.7-5.1 11.9-5.4 25.7-1.2 38 4.2 13.7 14.9 24.9 27.6 31.4 12.7 5.6 27.6 6.8 40.8 1.9 12.1-4.3 21.9-13.6 28.4-24.5 6-11.2 8.3-24.5 5.4-36.9-3.2-17.1-15.6-32-31.6-38.5-9.5-4.1-20.2-4.9-30.3-3.1zm678 5c-10.7 1.7-20.8 6.8-28.4 14.5-13.6 12.3-19.1 32.3-14.9 50.1 3.3 16.2 15 29.9 29.7 37.2 9.4 4.2 20 5.4 30.2 4.2 17.1-2.2 32-14.4 39.9-29.5 9.3-19.1 6.1-43.7-8.2-59.4-5.4-5.4-11.5-10.4-18.6-13.4-9.4-3.9-19.7-5.4-29.7-3.7zm-561 25c-7.6 2.4-12.4 10.9-10.4 18.6 1.6 7.1 9 12 16.1 11.7 32.3-0.1 64.6 0.2 96.9 0.5 31.7 0.1 63.4 0.2 95.1 0.4 24 0.2 48-0.2 72.1 0.6 58.3 0.1 116.6 0.3 174.9 0.7 4.5 0.1 9.4 0.1 13-3 7.4-5.2 8.4-17.4 1.6-23.5-3.7-4.1-9.4-4.9-14.6-4.6-56.6-0.2-113.3-0.5-169.9-0.6-23.7-0.8-47.4-0.2-71.1-0.7-34.7 0-69.3-0.2-104-0.3-29.3-0.8-58.7-0.3-88-0.6-3.9 0-8-0.4-11.7 0.8z"/><path class="c" d="m387.5 72.6c34.2 0.1 68.4 0 102.5 0.1 15.2 0.2 30.4 6.4 41.1 17.2 10.4 10.5 20.8 21.2 31.2 31.8 3.8 4.1 8.1 7.8 11.6 12.2-20.2 0.9-40.5 0.1-60.7 0.6-4.6-3.4-9.7-6.6-15.3-8-7.5-2.3-15.3-1.6-22.9-1.6q-17.3 0-34.5-0.1c-8.5-4.6-14.5-12.4-21.1-19.2-10.5-11.1-21.1-22.1-31.9-33z"/><path class="c" d="m33.8 106.6c0.5 5.1 0.5 10.3 0.5 15.4-0.2 12.1 0.4 24.2-0.4 36.3-0.1-17.2-0.4-34.5-0.1-51.7z"/><path class="c" d="m573.5 277.7c35.5-0.5 71 0 106.5-0.3 9.9-0.5 19.7 4 26.1 11.5 6 6.8 8.5 16.1 8.3 25.1 0.1 89 0 178 0.1 267 0.2 10-4.2 20.1-12.1 26.4-5.6 5-13 7.7-20.4 7.8q-223.6 0-447.1 0c-5.3 0-10.7 0.2-15.8-1.3-14-4.3-24-18.4-23.6-32.9 0.1-75 0-150.1 0-225.1 0-17.1 15.2-32.7 32.5-32.2 79.7-0.1 159.3 0.1 239-0.1 12.7-0.3 26 0.7 38-4.5 14.4-5.4 25.6-16.2 36.6-26.5 8.8-8 19.7-14.4 31.9-14.9zm-344.1 60.8c-8.3 2-15.5 8.4-18.1 16.6-1.6 4.1-1.6 8.5-1.5 12.9 0 66.6-0.1 133.3 0 200 0 5.5-0.5 11.4 1.7 16.6 3.6 10 14.1 16.5 24.6 16.2 145.6 0.1 291.3 0.1 436.9 0 8.8 0.5 18-3.5 22.7-11.2 3.1-4.6 4.2-10.2 4.1-15.6q0.1-105 0-210c0.2-9.6-5.1-19.6-14.1-23.7-3.9-2-8.3-2.7-12.7-2.5-144.6 0-289.3 0-434 0-3.2 0-6.4 0-9.6 0.7z"/><path class="c" d="m108.3 311.6c9.2-1.2 18.8-0.2 27.1 3.9 14.7 7.2 25.5 22.1 27.2 38.4 0.5 7.9-0.2 16-3.5 23.2-5.8 13.3-17.4 24.8-31.8 28.3-10.7 2.5-22.5 1.8-32.3-3.2-11.4-5.5-20.3-15.8-24.5-27.6-4-11.2-3.6-23.9 1.5-34.6 6-15 20.4-26 36.3-28.4zm-1.9 14.1c-3.7 1.1-7.3 2.9-10.5 5.1-12 8.3-17.6 24.5-13.2 38.4 4.2 14.2 18.5 24.6 33.3 24.2 11.4-0.1 22.3-6.7 28.2-16.4 3.9-5.9 5.1-13.1 4.9-20.1-0.4-12.2-8.1-23.7-19.1-29-7.2-3.6-15.8-4.3-23.6-2.2z"/><path class="c" d="m787.2 313.4c11-1.9 22.5 0.5 31.8 6.5 11.5 6.4 19 18.4 21.8 31.1 2.4 11.6 0.1 23.9-5.6 34.2-5.6 9.3-14.2 16.9-24.5 20.5-12.1 4.4-25.9 3.9-37.4-2-14.3-7.1-24.4-21.8-26.1-37.6-1.6-11.9 2.3-24 9-33.8 7.5-9.9 18.7-17 31-18.9zm2.2 13.2c-11.3 2-21.5 9.9-26.3 20.5-4.7 11.2-3.1 24.8 4.2 34.6 8.3 10.8 23.4 16.5 36.6 12.1 16.9-4.6 27.9-23.9 23.4-40.9-3.5-16.7-20.9-29.1-37.9-26.3z"/><path class="c" d="m27.6 380.1c1.2-4 2.7-7.9 4.6-11.6q1.1 1.2 2.3 2.3c-0.1 108.1-0.1 216.1 0 324.2-0.1 5 0.8 10 0.7 15-0.2 116.7 0.3 233.3-0.1 350-0.1 5.5 0.6 11.1-0.7 16.6 0.4-124.3 0.3-248.7 0.3-373-2.1 0.3-4.5 0.6-5.8-1.4-3.8-5.2-4.7-11.9-4.6-18.1-0.9-13.4-0.5-26.8-0.8-40.2-0.3-24.6 0.1-49.2-0.6-73.8 0-20-0.5-40-0.6-60-0.1-10.3 0.2-20.6-0.3-30.9-0.5-24.7-0.4-49.4-0.8-74.2-0.3-8.8 3.9-16.7 6.4-24.9z"/><path class="c" d="m726.4 800.6c13.2-1.6 26.6 1.4 38.2 7.8 16.2 9.4 27.7 26.2 31.2 44.5 5 25.9-6.9 54.5-29.5 68.4-12.1 7.8-27 11.4-41.4 9.2-13.9-1.8-27.3-8.2-37-18.4-9.1-8.9-14.8-20.9-17.6-33.2-3.8-18.3 0.9-37.8 11.6-53.1 10.5-14 26.9-23.7 44.5-25.2zm-3.1 15.8c-13.4 2.8-25.8 11.2-32.3 23.4-13.7 21.9-6.4 53.9 15.4 67.8 13.8 9.5 32.8 10.8 47.8 3.3 7.5-4 14.1-9.9 19-16.9 8.9-13.1 10.8-30.6 5.4-45.4-4.1-12-12.9-22.2-24.1-28-9.6-4.5-20.7-6.6-31.2-4.2z"/><path class="c" d="m556.3 820.4c12.1-2.5 24.8 1.5 34.7 8.5 12.6 9.7 19.8 26.2 18.1 42.1-1 10-5.8 19.4-12.2 26.9-8.8 9.1-21.3 14.4-33.9 14.4-10.9-0.7-22.1-4.4-30.2-12.1-8.1-8-14.1-18.7-15-30.2-1.4-15.1 5.6-30.4 17.1-40.1 6.1-5.1 13.7-7.9 21.4-9.5zm-17.6 26.2c-9.2 11.7-9.1 30.8 2.2 41 9.3 11.2 27.3 13.8 39.1 5.3 7.4-5 13.7-12.7 14.6-21.9 0.2 0.2 0.6 0.6 0.8 0.8 0-4.3 0.3-8.7-0.5-12.9-0.6-3.2-1.1-6.8-3.9-8.8-2.6-3.8-5.5-7.6-9.5-10.1-5.2-4.2-12-5.9-18.5-6.3-9.5 0.4-18.5 5.5-24.3 12.9z"/><path class="c" d="m135.4 883.3c6.3 0.1 12.6-0.8 18.7 0.4 8 2.1 10.5 13 5.8 19.2-1.9 2.3-4.9 3.6-7.8 3.7-5.5 0.3-11.1 0.1-16.6 0.1 0.1-7.8 0-15.6-0.1-23.4z"/><path class="c" d="m297.9 883.1c5.4 0.2 10.8-0.1 16.1 0.3 4 0.2 7.6 3.1 8.5 7 0.9 4.8 0.4 11.1-4.5 13.6-6.2 3-13.4 1.1-20.1 1.8-0.2-7.6-0.1-15.1 0.1-22.7z"/><path class="c" d="m366.3 883.3c6.4 0.1 13.7-1 19.3 3.2 6.3 4.7 7.4 13.2 7.7 20.5 0.1 8.1-0.7 17.4-7.2 23.1-5.5 4.7-13.1 3.6-19.7 3.7-0.2-16.8 0-33.6-0.2-50.5z"/><path class="c" d="m106.5 1049.6c10.3-1.4 21.4-0.2 30.5 5.3 12.2 6.5 20.9 18.6 23.9 32.1 2.7 12.8 0 26.6-7.7 37.3-5.8 8.9-15 15.5-25.2 18.6-12.4 3.7-26.3 2.2-37.4-4.4-20.6-11.4-30.2-39.5-19.9-60.9 6.4-14.4 20.1-25.4 35.8-28zm-0.2 13.7c-11.5 3-21.2 11.8-24.8 23.1-1.9 6.6-2.2 13.8-0.2 20.4 4.2 14.7 19.3 25.8 34.7 24.6 11.7-0.6 22.6-7.9 28.3-18 5.3-10 5.3-22.7 0-32.7-7.1-13.3-23.3-21.2-38.1-17.4z"/><path class="c" d="m780.4 1055.6c18.6-4.6 39.8 3.7 50.1 19.9 11.1 16.2 11 39.4-1 55-8.3 12.1-22.9 19.2-37.4 19.7-11.3 0.3-22.8-3.6-31.6-10.7-10.8-9.6-18-23.9-17.2-38.5 0.3-17.7 11.4-35 27.7-42.1 3-1.4 6.1-2.5 9.4-3.3zm4 13c-13.1 2.5-24.7 13.4-26.9 26.8-0.8 7-0.9 14.4 2.1 20.9 4.4 10 13.9 17.2 24.2 19.9 15.2 3.6 31.7-5.4 38.1-19.5 3.5-7.4 3.6-16.2 1.6-24.1-4.2-16.4-22.4-27.9-39.1-24z"/><path class="a" d="m626.3 105.7c12-5.6 25.5-8.1 38.8-7.4 9.2 0.6 18.6 0.2 27.9 0.4 4.3 0.1 8.6 0.1 13-0.3q-1.7 0.5-3.2 1.1c6.1 0 12.3-0.3 18.5 0.1 7.5 0.8 15 2.9 21.2 7.3 0.3 6.4 0.5 12.8-0.3 19.2q-2-0.7-4.1-0.4c-10.7 1.2-21.5 1.1-32.1-0.3-5.7-0.2-11.4 0-17 0-8.5 0.1-17-0.6-25.4 0.9-12.5 0.7-25.5 0.8-37.3-3.8 0-5.6-0.1-11.2 0-16.8z"/><path class="d" d="m110.2 339.2c2.6-2.5 7.2-2.6 10.1-0.5 1 4.7 0.1 9.6 0.6 14.4 4.2 0.3 8.5 0 12.8 0.4 2.4 1.1 2.5 4.2 2.5 6.5-0.1 1.5-0.4 3.6-2.2 3.9-4.3 0.7-8.7 0.3-13 1.1-0.3 4.4 0.4 9-0.6 13.3-2.4 2.8-7.7 3.3-10.2 0.4-1.5-4.4-0.5-9.2-1.1-13.8-4.4-0.5-8.9 0.2-13.2-0.7-2.1-1.8-1.9-4.8-1.8-7.3 0-1.4 0.7-3.1 2.3-3.4 4.2-0.7 8.6-0.3 12.9-0.4 0.7-4.6-0.3-9.4 0.9-13.9z"/><path class="d" d="m788.8 340.8c3-2 8.1-2.3 10.7 0.5 0.7 4.5 0.3 9.1 0.6 13.6 4.2 0.3 8.5-0.1 12.6 0.4 3.6 2 3.7 8.7 0.3 10.8-4.2 0.6-8.4 0.2-12.6 0.4-0.4 4.4 0.1 8.9-0.8 13.2-1.9 3.6-7.7 3.5-10.5 1.1-1.2-4.7-0.2-9.7-0.5-14.5-4.6-0.4-9.6 0.9-13.9-0.9-2.6-2.5-1.5-6.9 0.1-9.7 4.5-1 9.3-0.1 13.9-0.8 0.2-4.7-0.9-9.5 0.1-14.1z"/><path class="d" d="m872.5 702.9c1 9.1 0 18.2 0.9 27.3 0 6.1 0.1 12.2-0.2 18.3-2.1-6.6-0.8-13.6-1.1-20.5 0.3-8.4-0.2-16.8 0.4-25.1z"/><path class="d" d="m591 850.1c2.8 2 3.3 5.6 3.9 8.8 0.8 4.2 0.5 8.6 0.5 12.9-0.2-0.2-0.6-0.6-0.8-0.8 0.7-7.1-0.2-14.5-3.6-20.9z"/><path class="d" d="m109.3 1077.3c2.4-2.8 7.8-2.8 9.9 0.4 0.7 4.4 0.5 8.9 0.9 13.3 3.6 0.5 7.3 0.3 10.9 0.3 5.5-0.3 6.5 10 1.1 10.9-4 0.8-8.2 0.2-12.3 0.6-0.2 3.9 0 7.9-0.4 11.8-0.7 4.4-7.4 5.4-9.9 2.1-1.1-4.6-0.5-9.3-1.4-13.9-4.5-0.8-9.3 0.2-13.7-1.2-2.7-2.8-2.6-10.6 2.7-10.2 3.6-0.1 7.3 0.1 11-0.3 0.7-4.6 0-9.3 1.2-13.8z"/><path class="d" d="m785.6 1083.7c0.9-3.5 5.5-3.5 8.3-2.7 2.3 0.6 2.3 3.2 2.4 5 0.1 3.6 0.1 7.2 0.8 10.7 4.2 0.2 8.5-0.2 12.8 0.5 3.5 2.3 3.4 10.7-1.9 10.6-3.7 0.2-7.3 0.2-11 0.5-0.6 4.3 0 8.7-0.8 13-1.6 3.5-7 3.5-9.7 1.4-2-4.6-0.7-9.8-1.5-14.6-4.5-0.4-9.1-0.1-13.7-0.6-2.7-2.7-2.5-9.2 1.7-10.4 3.9-0.5 7.8-0.3 11.6-0.5 1.2-4.3 0.3-8.7 1-12.9z"/><path class="e" d="m17.7 464c0-3.9 0.1-8.6 3.4-11.3 1.2 8.8-0.1 17.7 0.9 26.5 0.5 10.3 0.2 20.6 0.3 30.9-3.1-0.8-4.4-4.3-4.6-7.1-0.2-13 0.1-26 0-39z"/><path class="e" d="m18.9 595c-0.2-2.3 0.6-4.4 2.2-5.9 1.9 4.1 1 8.6 1.1 12.9 0.3 11.4 0.3 22.7 0.3 34 0 1.9-0.2 3.7-1.2 5.3-1.4-2.3-2.7-4.6-2.6-7.3-0.2-13 0.2-26 0.2-39z"/><path class="e" d="m723.3 816.4c10.5-2.4 21.6-0.3 31.2 4.3 11.2 5.7 20 15.9 24.1 27.9 5.4 14.8 3.5 32.3-5.4 45.4-4.9 7-11.5 12.9-19 16.9-15 7.5-34 6.2-47.8-3.3-21.8-13.9-29.1-45.9-15.4-67.8 6.5-12.2 18.9-20.6 32.3-23.4z"/><path class="e" d="m534.4 858.8c3.1-13 15.2-23.2 28.6-23.8 6.4 0.2 12.5 2.8 18.5 5 4 2.5 6.9 6.3 9.5 10.1 3.4 6.4 4.3 13.8 3.6 20.9-0.9 9.2-7.2 16.9-14.6 21.9-11.8 8.5-29.9 5.9-39.1-5.3-1.1-2.4-2.2-4.7-3.6-6.9-4-6.4-4.9-14.6-2.9-21.9z"/></svg>